<svg width="36" height="36" viewBox="0 0 36 36" fill="none" xmlns="http://www.w3.org/2000/svg">
<path d="M17.3784 12.4627L17.9996 13.5577L18.6209 12.4627C19.0123 11.7728 19.5847 11.1937 20.282 10.7855C20.9736 10.3808 21.7629 10.1589 22.5715 10.1431C23.876 10.2037 25.1003 10.7627 25.9806 11.6941C26.8649 12.6298 27.3308 13.8652 27.2818 15.1299L27.2813 15.1437V15.1575C27.2813 16.7642 26.4039 18.539 25.0212 20.3108C23.6524 22.0648 21.8647 23.7194 20.2129 25.0711L20.2124 25.0715C19.5949 25.5777 18.8115 25.8572 17.9996 25.8572C17.1878 25.8572 16.4043 25.5777 15.7869 25.0715L15.7864 25.0711C14.1345 23.7194 12.3468 22.0648 10.9781 20.3108C9.59539 18.539 8.71795 16.7642 8.71795 15.1575V15.1437L8.71742 15.1299C8.6685 13.8652 9.13432 12.6298 10.0187 11.6941C10.899 10.7627 12.1233 10.2037 13.4278 10.1431C14.2364 10.1589 15.0257 10.3808 15.7173 10.7855C16.4146 11.1937 16.987 11.7728 17.3784 12.4627Z" stroke="white" stroke-width="1.42857"/>
</svg>
