<svg width="14" height="12" viewBox="0 0 14 12" fill="none" xmlns="http://www.w3.org/2000/svg">
<path d="M6.61749 2.09415L7 2.76833L7.38251 2.09415C7.66179 1.60189 8.07008 1.18889 8.56722 0.897902C9.06084 0.608982 9.62419 0.450852 10.2011 0.439946C11.1304 0.482585 12.0029 0.880567 12.6304 1.54453C13.2605 2.21113 13.5926 3.09159 13.5577 3.99324L13.5574 4.00173V4.01023C13.5574 5.15522 12.9331 6.41091 11.9626 7.65463C11.0006 8.88732 9.74539 10.0488 8.58741 10.9964L8.5871 10.9966C8.14401 11.3599 7.58206 11.5602 7 11.5602C6.41794 11.5602 5.85599 11.3599 5.4129 10.9966L5.41259 10.9964C4.25461 10.0488 2.99944 8.88732 2.03745 7.65463C1.06686 6.41091 0.442605 5.15522 0.442605 4.01023V4.00173L0.442276 3.99324C0.4074 3.09159 0.739543 2.21113 1.36956 1.54453C1.99708 0.880567 2.86964 0.482585 3.79892 0.439946C4.37581 0.450852 4.93916 0.608982 5.43278 0.897902L5.65493 0.518356L5.43278 0.897902C5.92992 1.18889 6.3382 1.60189 6.61749 2.09415Z" stroke="white" stroke-width="0.879563"/>
</svg>
