<svg width="26" height="27" viewBox="0 0 26 27" fill="none" xmlns="http://www.w3.org/2000/svg">
<rect y="0.5" width="26" height="26" rx="13" fill="#FFE8C6"/>
<path d="M17.91 11.2156C17.864 11.1492 17.8026 11.0948 17.731 11.0573C17.6595 11.0198 17.5798 11.0002 17.499 11.0001H10.6655L10.0885 9.61512C10.0129 9.43274 9.88476 9.27692 9.72044 9.16743C9.55611 9.05794 9.36298 8.99971 9.16552 9.00012H7.99902V10.0001H9.16552L11.5375 15.6926C11.5755 15.7837 11.6396 15.8615 11.7217 15.9162C11.8039 15.9709 11.9003 16.0001 11.999 16.0001H15.999C16.2075 16.0001 16.394 15.8706 16.4675 15.6761L17.9675 11.6761C17.9959 11.6004 18.0055 11.519 17.9954 11.4388C17.9854 11.3586 17.9561 11.282 17.91 11.2156ZM15.6525 15.0001H12.3325L11.0825 12.0001H16.7775L15.6525 15.0001Z" fill="white"/>
<path d="M12.249 18.0001C12.6632 18.0001 12.999 17.6643 12.999 17.2501C12.999 16.8359 12.6632 16.5001 12.249 16.5001C11.8348 16.5001 11.499 16.8359 11.499 17.2501C11.499 17.6643 11.8348 18.0001 12.249 18.0001Z" fill="white"/>
<path d="M15.749 18.0001C16.1632 18.0001 16.499 17.6643 16.499 17.2501C16.499 16.8359 16.1632 16.5001 15.749 16.5001C15.3348 16.5001 14.999 16.8359 14.999 17.2501C14.999 17.6643 15.3348 18.0001 15.749 18.0001Z" fill="white"/>
</svg>
