<svg width="26" height="27" viewBox="0 0 26 27" fill="none" xmlns="http://www.w3.org/2000/svg">
<rect y="0.5" width="26" height="26" rx="13" fill="#FFE8C6"/>
<path d="M14.58 8.50001C14.4658 8.48292 14.3492 8.50589 14.25 8.56501L8.24999 12.065C8.22627 12.0788 8.20442 12.0956 8.18499 12.115L8.13499 12.155C8.101 12.1944 8.07242 12.2381 8.04999 12.285C8.01445 12.3509 7.99719 12.4252 7.99999 12.5V17.5C7.99999 17.6326 8.05267 17.7598 8.14644 17.8536C8.2402 17.9473 8.36738 18 8.49999 18H17.5C17.6326 18 17.7598 17.9473 17.8535 17.8536C17.9473 17.7598 18 17.6326 18 17.5V12.5C18.0019 11.5346 17.658 10.6005 17.0306 9.86676C16.4033 9.13301 15.5339 8.64816 14.58 8.50001ZM14.58 9.52501C15.1811 9.6481 15.7308 9.95051 16.1566 10.3924C16.5824 10.8342 16.8642 11.3947 16.965 12H10.35L14.58 9.52501ZM17 17H8.99999V13H17V17Z" fill="white"/>
<path d="M10.25 16.5C10.6642 16.5 11 16.1642 11 15.75C11 15.3358 10.6642 15 10.25 15C9.83579 15 9.5 15.3358 9.5 15.75C9.5 16.1642 9.83579 16.5 10.25 16.5Z" fill="white"/>
<path d="M12.75 15C13.1642 15 13.5 14.6642 13.5 14.25C13.5 13.8358 13.1642 13.5 12.75 13.5C12.3358 13.5 12 13.8358 12 14.25C12 14.6642 12.3358 15 12.75 15Z" fill="white"/>
<path d="M15.5 16.5C16.0523 16.5 16.5 16.0523 16.5 15.5C16.5 14.9477 16.0523 14.5 15.5 14.5C14.9477 14.5 14.5 14.9477 14.5 15.5C14.5 16.0523 14.9477 16.5 15.5 16.5Z" fill="white"/>
</svg>
