<svg width="26" height="27" viewBox="0 0 26 27" fill="none" xmlns="http://www.w3.org/2000/svg">
<rect y="0.5" width="26" height="26" rx="13" fill="#FFE8C6"/>
<path d="M12.501 8.5H10.501C10.3684 8.5 10.2412 8.55268 10.1475 8.64645C10.0537 8.74021 10.001 8.86739 10.001 9V10.906C9.54549 11.1689 9.1671 11.5469 8.90382 12.0022C8.64054 12.4575 8.50163 12.9741 8.50102 13.5V13.994L8.50002 14L8.50102 14.036V18C8.50102 18.1326 8.55369 18.2598 8.64746 18.3536C8.74123 18.4473 8.86841 18.5 9.00102 18.5H14.001C14.1336 18.5 14.2608 18.4473 14.3546 18.3536C14.4483 18.2598 14.501 18.1326 14.501 18V13.5C14.5004 12.9741 14.3614 12.4576 14.0981 12.0023C13.8349 11.547 13.4565 11.1689 13.001 10.906V9C13.001 8.86739 12.9483 8.74021 12.8546 8.64645C12.7608 8.55268 12.6336 8.5 12.501 8.5ZM11.001 10.5V9.5H12.001V10.5H11.001ZM13.5015 17.5H9.50152V14.5H13.5015V17.5ZM9.50102 13.5C9.50102 12.397 10.398 11.5 11.501 11.5C12.604 11.5 13.501 12.397 13.501 13.5H9.50102ZM13.5015 9H14.5015V10H13.5015V9ZM15 9H16V10H15V9ZM15 10.5H16V11.5H15V10.5ZM16.5 9H17.5V10H16.5V9ZM16.5 10.5H17.5V11.5H16.5V10.5ZM16.5 12H17.5V13H16.5V12Z" fill="white"/>
</svg>
